<svg width="62" height="62" viewBox="0 0 62 62" fill="none" xmlns="http://www.w3.org/2000/svg">
<path d="M15.5 0C13.3687 0 11.625 1.74375 11.625 3.875V58.125C11.625 60.2562 13.3687 62 15.5 62H54.25C56.3812 62 58.125 60.2562 58.125 58.125V15.5L42.625 0H15.5Z" fill="#E2E5E7"/>
<path d="M46.5 15.5H58.125L42.625 0V11.625C42.625 13.7563 44.3687 15.5 46.5 15.5Z" fill="#B0B7BD"/>
<path d="M58.125 27.125L46.5 15.5H58.125V27.125Z" fill="#CAD1D8"/>
<path d="M50.5 50.3125C50.5 51.3781 49.6281 52.25 48.5625 52.25H5.9375C4.87187 52.25 4 51.3781 4 50.3125V30.9375C4 29.8719 4.87187 29 5.9375 29H48.5625C49.6281 29 50.5 29.8719 50.5 30.9375V50.3125Z" fill="#828D9D"/>
<path d="M48.4375 52.3125H11.625V54.25H48.4375C49.5031 54.25 50.375 53.3781 50.375 52.3125V50.375C50.375 51.4406 49.5031 52.3125 48.4375 52.3125Z" fill="#CAD1D8"/>
<path d="M14.3672 36.624V37.98H10.8752V40.128H13.5512V41.46H10.8752V45H9.19519V36.624H14.3672ZM20.4465 45.084C19.6625 45.084 18.9425 44.9 18.2865 44.532C17.6305 44.164 17.1105 43.656 16.7265 43.008C16.3425 42.352 16.1505 41.612 16.1505 40.788C16.1505 39.972 16.3425 39.24 16.7265 38.592C17.1105 37.936 17.6305 37.424 18.2865 37.056C18.9425 36.688 19.6625 36.504 20.4465 36.504C21.2385 36.504 21.9585 36.688 22.6065 37.056C23.2625 37.424 23.7785 37.936 24.1545 38.592C24.5385 39.24 24.7305 39.972 24.7305 40.788C24.7305 41.612 24.5385 42.352 24.1545 43.008C23.7785 43.656 23.2625 44.164 22.6065 44.532C21.9505 44.9 21.2305 45.084 20.4465 45.084ZM20.4465 43.584C20.9505 43.584 21.3945 43.472 21.7785 43.248C22.1625 43.016 22.4625 42.688 22.6785 42.264C22.8945 41.84 23.0025 41.348 23.0025 40.788C23.0025 40.228 22.8945 39.74 22.6785 39.324C22.4625 38.9 22.1625 38.576 21.7785 38.352C21.3945 38.128 20.9505 38.016 20.4465 38.016C19.9425 38.016 19.4945 38.128 19.1025 38.352C18.7185 38.576 18.4185 38.9 18.2025 39.324C17.9865 39.74 17.8785 40.228 17.8785 40.788C17.8785 41.348 17.9865 41.84 18.2025 42.264C18.4185 42.688 18.7185 43.016 19.1025 43.248C19.4945 43.472 19.9425 43.584 20.4465 43.584ZM31.3003 45L29.4523 41.736H28.6603V45H26.9803V36.624H30.1243C30.7723 36.624 31.3243 36.74 31.7803 36.972C32.2363 37.196 32.5763 37.504 32.8003 37.896C33.0323 38.28 33.1483 38.712 33.1483 39.192C33.1483 39.744 32.9883 40.244 32.6683 40.692C32.3483 41.132 31.8723 41.436 31.2403 41.604L33.2443 45H31.3003ZM28.6603 40.476H30.0643C30.5203 40.476 30.8603 40.368 31.0843 40.152C31.3083 39.928 31.4203 39.62 31.4203 39.228C31.4203 38.844 31.3083 38.548 31.0843 38.34C30.8603 38.124 30.5203 38.016 30.0643 38.016H28.6603V40.476ZM44.7998 36.624V45H43.1198V39.552L40.8758 45H39.6038L37.3478 39.552V45H35.6678V36.624H37.5758L40.2398 42.852L42.9038 36.624H44.7998Z" fill="white"/>
</svg>
