<svg width="34" height="39" viewBox="0 0 34 39" fill="none" xmlns="http://www.w3.org/2000/svg">
<rect x="33.6819" y="3.46664" width="35.5333" height="33.6818" rx="5" transform="rotate(90 33.6819 3.46664)" fill="#3A70D9"/>
<rect x="5.28174" y="24.8182" width="14.9654" height="2.65909" rx="1.32955" fill="white"/>
<rect x="5.28174" y="30.1364" width="7.92288" height="2.65909" rx="1.32955" fill="white"/>
<g filter="url(#filter0_bi_699_13070)">
<path d="M14.6819 2C14.6819 0.895429 15.5773 0 16.6819 0H26.5001C27.6046 0 28.5001 0.895431 28.5001 2V15.7675C28.5001 17.4453 26.5586 18.3774 25.2493 17.3282L22.8417 15.3987C22.1108 14.8129 21.0712 14.8129 20.3402 15.3987L17.9326 17.3282C16.6234 18.3774 14.6819 17.4453 14.6819 15.7675V2Z" fill="#BCE4F1" fill-opacity="0.5"/>
</g>
<defs>
<filter id="filter0_bi_699_13070" x="10.6819" y="-4" width="21.8181" height="25.7712" filterUnits="userSpaceOnUse" color-interpolation-filters="sRGB">
<feFlood flood-opacity="0" result="BackgroundImageFix"/>
<feGaussianBlur in="BackgroundImage" stdDeviation="2"/>
<feComposite in2="SourceAlpha" operator="in" result="effect1_backgroundBlur_699_13070"/>
<feBlend mode="normal" in="SourceGraphic" in2="effect1_backgroundBlur_699_13070" result="shape"/>
<feColorMatrix in="SourceAlpha" type="matrix" values="0 0 0 0 0 0 0 0 0 0 0 0 0 0 0 0 0 0 127 0" result="hardAlpha"/>
<feOffset dx="0.2" dy="0.1"/>
<feGaussianBlur stdDeviation="0.5"/>
<feComposite in2="hardAlpha" operator="arithmetic" k2="-1" k3="1"/>
<feColorMatrix type="matrix" values="0 0 0 0 1 0 0 0 0 1 0 0 0 0 1 0 0 0 0.6 0"/>
<feBlend mode="normal" in2="shape" result="effect2_innerShadow_699_13070"/>
</filter>
</defs>
</svg>
