<svg width="61" height="60" viewBox="0 0 61 60" fill="none" xmlns="http://www.w3.org/2000/svg">
<circle cx="30.5" cy="30" r="30" fill="#F0F8FF"/>
<path d="M23.8334 43.3337H19.8334C19.1261 43.3337 18.4478 43.0527 17.9477 42.5526C17.4476 42.0525 17.1667 41.3742 17.1667 40.667V31.3337C17.1667 30.6264 17.4476 29.9481 17.9477 29.448C18.4478 28.9479 19.1261 28.667 19.8334 28.667H23.8334M33.1667 26.0003V20.667C33.1667 19.6061 32.7453 18.5887 31.9951 17.8386C31.245 17.0884 30.2276 16.667 29.1667 16.667L23.8334 28.667V43.3337H38.8734C39.5165 43.3409 40.1405 43.1155 40.6306 42.699C41.1206 42.2825 41.4436 41.7029 41.54 41.067L43.38 29.067C43.438 28.6848 43.4123 28.2946 43.3045 27.9233C43.1967 27.5521 43.0095 27.2087 42.7558 26.917C42.5022 26.6253 42.1881 26.3922 41.8354 26.2339C41.4828 26.0757 41.0999 25.9959 40.7134 26.0003H33.1667Z" stroke="#0A84FF" stroke-width="2" stroke-linecap="round" stroke-linejoin="round"/>
</svg>
