<svg width="40" height="40" viewBox="0 0 40 40" fill="none" xmlns="http://www.w3.org/2000/svg">
<rect width="40" height="40" rx="4" fill="#E8FFF3"/>
<path d="M25.4196 16.5385C24.5337 15.6611 23.3819 15.0517 22.0959 14.8419C21.5508 14.753 21.1001 14.3138 21.1001 13.7616V11.4C21.1001 10.8477 21.5489 10.395 22.0987 10.4469C24.5233 10.6757 26.708 11.7289 28.3693 13.3232M25.4196 16.5385C26.5428 17.6509 27.2386 19.1942 27.2386 20.9C27.2386 24.2902 24.4903 27.0385 21.1001 27.0385C18.049 27.0385 15.5179 24.8125 15.042 21.896C14.9531 21.3509 14.5139 20.9 13.9616 20.9H11.6001C11.0478 20.9 10.5951 21.3491 10.647 21.899C11.1501 27.2294 15.638 31.4 21.1001 31.4C26.8991 31.4 31.6001 26.699 31.6001 20.9C31.6001 17.9223 30.3606 15.2341 28.3693 13.3232M25.4196 16.5385L28.3693 13.3232" stroke="#50CD89" stroke-width="2"/>
<path d="M17.1999 9.59997C17.1999 9.04769 16.7503 8.59401 16.2015 8.65598C12.1392 9.11471 8.91464 12.3393 8.45591 16.4016C8.39394 16.9504 8.84762 17.4 9.3999 17.4H11.0553C11.6076 17.4 12.0451 16.9479 12.1512 16.4059C12.5514 14.3619 14.1619 12.7515 16.2058 12.3513C16.7478 12.2452 17.1999 11.8076 17.1999 11.2554V9.59997Z" stroke="#50CD89" stroke-opacity="0.6" stroke-width="2"/>
</svg>
